<svg id="Calque_1" data-name="Calque 1" xmlns="http://www.w3.org/2000/svg" viewBox="0 0 878.78 1020.18"><defs><style>.cls-1{fill:#fff;}</style></defs><path class="cls-1" d="M543.13,575.23,219.69,736.5l-1.53-2.29L475.25,511.53,216.85,288.2l1.2-1.81L543.06,448c37.34-149.34,74.42-297.66,111.51-446h2.86c37,148.23,74,296.46,111.38,446.13l325.4-161.94,1.21,1.83L836.77,511.49l258.86,224.23-1.16,1.73L768.71,575.14C731.32,725,694.24,873.62,657.16,1022.24h-2.28C617.77,873.8,580.66,725.37,543.13,575.23Zm113.29-522c-1.74,4.26-2.85,6.23-3.37,8.34q-47.65,191.25-95.4,382.5c-2,7.86.38,11.68,7.09,14.95,27,13.16,54,26.42,80.72,40,7.64,3.89,14.3,3.6,21.8-.21,26.18-13.3,52.44-26.44,78.92-39.14,8.13-3.9,10.06-8.43,7.83-17.28q-40.46-160.23-80.2-320.65C668.28,99.63,662.59,77.52,656.42,53.24ZM654.75,967l1.78.06c1.31-4,2.88-7.85,3.88-11.88q47-187.8,93.94-375.6c1.88-7.5.09-11.74-6.89-15.1q-41-19.77-81.71-40.22a22.2,22.2,0,0,0-20,0q-40.2,20.31-80.68,40c-7.2,3.49-9.28,7.44-7.2,15.66q38.37,152,76,304.16Q644.27,925.62,654.75,967ZM304.89,344.47l-1.13,1.7L485.52,502.8l50.07-43.93ZM535.76,564.35c-14-12.33-27-23.69-39.89-35.09-9.94-8.77-10.8-8.87-20.81-.22Q400.15,593.81,325.3,658.67c-6.65,5.76-13.18,11.65-19.77,17.48l1.31,1.94ZM776,564.23,1007.15,679h0c-1.52-.62-3.78-3.22-5-4.22C980.14,655.94,961,636.37,939,617.44Q887.1,572.71,835.21,528c-4.08-3.52-8.07-7.61-13.85-2.64C806.73,537.9,792.07,550.44,776,564.23Zm50.65-61.49,179.61-155-1.4-2.1L776.32,459Zm-188.2,9.74c-.75-1.35-.91-2.15-1.37-2.39-27.63-14-55.25-28.11-83-41.88-2.26-1.11-6.6-1.23-8.29.17-16.78,14-33.2,28.33-50.22,43,15.79,13.82,30.76,26.53,45.22,39.78,5.89,5.4,11.13,5.71,18,2.18,23.72-12.18,47.65-24,71.47-35.94C633.07,516,635.7,514.13,638.42,512.48Zm34.83-1.87c.91,1.52,1.1,2.36,1.59,2.6C702.17,527.06,729.46,541,757,554.45c2.68,1.31,7.91,1,10.13-.85,16.44-13.35,32.42-27.27,49.45-41.77-17-14.81-32.56-28.79-48.75-42-2.47-2-8.57-1.93-11.79-.38C728.44,482.77,701.13,496.65,673.25,510.61Z" transform="translate(-216.85 -2.06)"/></svg>